<?xml version="1.0" encoding="UTF-8" standalone="no"?>
<svg width="800" height="500" viewBox="0 0 800 500" xmlns="http://www.w3.org/2000/svg">
  <style>
    @import url('https://fonts.googleapis.com/css2?family=Montserrat:wght@400;600&amp;display=swap');
    
    text {
      font-family: 'Montserrat', sans-serif;
    }
    
    .title {
      font-size: 24px;
      font-weight: 600;
      fill: #333;
    }
    
    .subtitle {
      font-size: 16px;
      font-weight: 600;
      fill: #555;
    }
    
    .label {
      font-size: 14px;
      fill: #444;
    }
    
    .code {
      font-size: 12px;
      fill: #0D47A1;
      font-weight: 400;
    }
    
    .process-box {
      fill: #E3F2FD;
      stroke: #1E88E5;
      stroke-width: 2;
      rx: 10;
      ry: 10;
    }
    
    .db-box {
      fill: #E8F5E9;
      stroke: #43A047;
      stroke-width: 2;
      rx: 10;
      ry: 10;
    }
    
    .result-box {
      fill: #FFF8E1;
      stroke: #FFB300;
      stroke-width: 2;
      rx: 10;
      ry: 10;
    }
    
    .arrow {
      stroke: #555;
      stroke-width: 2;
      fill: none;
      marker-end: url(#arrowhead);
    }
    
    .table-header {
      fill: #1E88E5;
    }
    
    .table-row {
      fill: #BBDEFB;
    }
    
    .table-row-alt {
      fill: #E3F2FD;
    }
    
    .table-border {
      stroke: #1E88E5;
      stroke-width: 1;
      fill: none;
    }
    
    .table-text {
      font-size: 12px;
      fill: #333;
    }
    
    .table-header-text {
      font-size: 12px;
      fill: white;
      font-weight: 600;
    }
  </style>
  
  <!-- White Background -->
  <rect width="800" height="500" fill="white"/>
  
  <defs>
    <marker id="arrowhead" markerWidth="10" markerHeight="7" refX="9" refY="3.5" orient="auto">
      <polygon points="0 0, 10 3.5, 0 7" fill="#555" />
    </marker>
  </defs>
  
  <!-- Title -->
  <text x="400" y="40" class="title" text-anchor="middle">SQL Query Execution Flow</text>
  
  <!-- SQL Query Section -->
  <rect x="100" y="80" width="600" height="60" class="process-box" />
  <text x="400" y="105" class="subtitle" text-anchor="middle">SQL Query</text>
  <text x="400" y="130" class="code" text-anchor="middle">SELECT employee_id, full_name, department FROM employees WHERE location = 'Bangkok';</text>
  
  <!-- Arrow down -->
  <path d="M400,140 L400,170" class="arrow" />
  
  <!-- Query Parsing Section -->
  <rect x="100" y="170" width="600" height="60" class="process-box" />
  <text x="400" y="195" class="subtitle" text-anchor="middle">SQL Query Parser</text>
  <text x="400" y="220" class="label" text-anchor="middle">Validates syntax and semantics of the query</text>
  
  <!-- Arrow down -->
  <path d="M400,230 L400,260" class="arrow" />
  
  <!-- Database Engine Section -->
  <rect x="100" y="260" width="600" height="60" class="db-box" />
  <text x="400" y="285" class="subtitle" text-anchor="middle">Database Query Optimizer</text>
  <text x="400" y="310" class="label" text-anchor="middle">Determines the most efficient way to execute the query</text>
  
  <!-- Arrow down -->
  <path d="M400,320 L400,350" class="arrow" />
  
  <!-- Data Access Section -->
  <rect x="250" y="350" width="300" height="60" class="db-box" />
  <text x="400" y="375" class="subtitle" text-anchor="middle">Database Storage Engine</text>
  <text x="400" y="400" class="label" text-anchor="middle">Retrieves the requested data</text>
  
  <!-- Arrow down -->
  <path d="M400,410 L400,440" class="arrow" />
  
  <!-- Result Set -->
  <rect x="150" y="440" width="500" height="40" class="result-box" />
  <text x="400" y="465" class="subtitle" text-anchor="middle">Result Set Returned to Application</text>
  
  <!-- Database Tables on the right -->
  <rect x="600" y="330" width="160" height="25" class="table-header" rx="5" ry="5" />
  <text x="680" y="347" class="table-header-text" text-anchor="middle">employees</text>
  
  <rect x="600" y="355" width="40" height="20" class="table-border" />
  <rect x="640" y="355" width="60" height="20" class="table-border" />
  <rect x="700" y="355" width="60" height="20" class="table-border" />
  
  <text x="620" y="369" class="table-text" text-anchor="middle">ID</text>
  <text x="670" y="369" class="table-text" text-anchor="middle">name</text>
  <text x="730" y="369" class="table-text" text-anchor="middle">location</text>
  
  <rect x="600" y="375" width="40" height="20" class="table-row" />
  <rect x="640" y="375" width="60" height="20" class="table-row" />
  <rect x="700" y="375" width="60" height="20" class="table-row" />
  
  <rect x="600" y="395" width="40" height="20" class="table-row-alt" />
  <rect x="640" y="395" width="60" height="20" class="table-row-alt" />
  <rect x="700" y="395" width="60" height="20" class="table-row-alt" />
  
  <rect x="600" y="415" width="40" height="20" class="table-row" />
  <rect x="640" y="415" width="60" height="20" class="table-row" />
  <rect x="700" y="415" width="60" height="20" class="table-row" />
  
  <!-- Arrow from table to storage engine -->
  <path d="M600,380 L550,380" class="arrow" />
  
  <!-- Data Flow Explanation -->
  <text x="180" y="330" class="label" text-anchor="middle">1. Parse</text>
  <text x="180" y="420" class="label" text-anchor="middle">4. Return</text>
  <text x="620" y="320" class="label" text-anchor="middle">3. Retrieve</text>
  <text x="620" y="250" class="label" text-anchor="middle">2. Optimize</text>
</svg>
